<?xml version="1.0" encoding="utf-8"?>
<!-- Generator: Adobe Illustrator 22.0.1, SVG Export Plug-In . SVG Version: 6.00 Build 0)  -->
<svg version="1.1" id="Layer_1" xmlns="http://www.w3.org/2000/svg" xmlns:xlink="http://www.w3.org/1999/xlink" x="0px" y="0px"
	 viewBox="0 0 48 48" style="enable-background:new 0 0 48 48;" xml:space="preserve">
<style type="text/css">
	.st0{fill:#8D7063;}
	.st1{fill:#FFFFFF;}
</style>
<circle class="st0" cx="24" cy="24" r="24"/>
<g>
	<path class="st1" d="M24,11.5c2-0.1,4.1,0,6.1,0.2c1,0,2,0.2,2.9,0.5c1.3,0.6,2.3,1.6,2.9,2.9c0.3,0.9,0.5,1.9,0.5,2.9
		c0,1.5,0.2,2,0.2,6.1c0.1,2,0,4.1-0.2,6.1c0,1-0.2,2-0.5,2.9c-0.6,1.3-1.6,2.3-2.9,2.9c-0.9,0.3-1.9,0.5-2.9,0.5
		c-1.5,0-2,0.2-6.1,0.2c-2,0.1-4.1,0-6.1-0.2c-1,0-2-0.2-2.9-0.5c-1.3-0.6-2.3-1.6-2.9-2.9c-0.3-0.9-0.5-1.9-0.5-2.9
		c0-1.5-0.2-2-0.2-6.1c-0.1-2,0-4.1,0.2-6.1c0-1,0.2-1.9,0.5-2.9c0.3-0.6,0.7-1.2,1.2-1.7c0.4-0.6,1-1,1.7-1.2
		c0.9-0.3,1.9-0.5,2.9-0.5C19.9,11.5,22,11.4,24,11.5 M24,8.8c-2.1-0.1-4.2,0-6.2,0.2c-1.3,0-2.5,0.2-3.7,0.7
		c-1,0.3-1.9,0.9-2.7,1.7c-0.8,0.7-1.4,1.7-1.7,2.7c-0.5,1.2-0.8,2.4-0.7,3.7c-0.2,2.1-0.2,4.2-0.2,6.2c-0.1,2.1,0,4.2,0.2,6.2
		c0,1.3,0.2,2.5,0.7,3.7c0.3,1,0.9,1.9,1.7,2.7c0.7,0.8,1.7,1.4,2.7,1.7c1.2,0.4,2.4,0.7,3.7,0.7c2.1,0.2,4.2,0.2,6.2,0.2
		c2.1,0.1,4.2,0,6.2-0.2c1.3,0,2.5-0.2,3.7-0.7c2.1-0.7,3.7-2.3,4.4-4.4c0.4-1.2,0.7-2.4,0.7-3.7c0-1.7,0.2-2.2,0.2-6.2
		c0.1-2.1,0-4.2-0.2-6.2c0-1.3-0.2-2.5-0.7-3.7c-0.3-1-0.9-1.9-1.7-2.7c-0.7-0.8-1.7-1.4-2.7-1.7C32.8,9.2,31.5,9,30.2,9
		C28.2,8.8,26.1,8.8,24,8.8 M24,16.2c-4.2-0.1-7.7,3.3-7.8,7.5c0,0.1,0,0.2,0,0.3c0,4.3,3.5,7.8,7.8,7.8s7.8-3.5,7.8-7.8
		S28.3,16.2,24,16.2L24,16.2 M24,29.1c-2.7,0.1-5-2.1-5.1-4.9c0-0.1,0-0.1,0-0.2c-0.1-2.7,2.1-5,4.9-5.1c0.1,0,0.1,0,0.2,0
		c2.7-0.1,5,2.1,5.1,4.9c0,0.1,0,0.1,0,0.2c0.1,2.7-2.1,5-4.9,5.1C24.1,29.1,24.1,29.1,24,29.1 M32.1,14.1c-1,0-1.9,0.8-1.9,1.9
		s0.8,1.9,1.9,1.9c1,0,1.9-0.8,1.9-1.9l0,0C33.9,14.9,33.1,14.1,32.1,14.1"/>
</g>
</svg>
