<svg xmlns="http://www.w3.org/2000/svg" width="86" height="86"><g data-name="Group 1677"><g data-name="Path 115" fill="#9f9f9f" opacity=".5"><path d="M43 85.5a42.233 42.233 0 0 1-16.543-3.34 42.359 42.359 0 0 1-13.509-9.108 42.359 42.359 0 0 1-9.108-13.51A42.233 42.233 0 0 1 .5 43a42.233 42.233 0 0 1 3.34-16.543 42.359 42.359 0 0 1 9.108-13.509 42.359 42.359 0 0 1 13.51-9.108A42.233 42.233 0 0 1 43 .5a42.233 42.233 0 0 1 16.543 3.34 42.359 42.359 0 0 1 13.509 9.108 42.359 42.359 0 0 1 9.108 13.51A42.233 42.233 0 0 1 85.5 43a42.233 42.233 0 0 1-3.34 16.543 42.359 42.359 0 0 1-9.108 13.509 42.359 42.359 0 0 1-13.51 9.108A42.233 42.233 0 0 1 43 85.5z"/><path d="M43 1c-5.67 0-11.17 1.11-16.348 3.3a41.861 41.861 0 0 0-13.35 9.002A41.861 41.861 0 0 0 4.3 26.652 41.736 41.736 0 0 0 1 43c0 5.67 1.11 11.17 3.3 16.348a41.861 41.861 0 0 0 9.002 13.35 41.861 41.861 0 0 0 13.35 9.002A41.736 41.736 0 0 0 43 85c5.67 0 11.17-1.11 16.348-3.3a41.861 41.861 0 0 0 13.35-9.002 41.861 41.861 0 0 0 9.002-13.35A41.736 41.736 0 0 0 85 43c0-5.67-1.11-11.17-3.3-16.348a41.861 41.861 0 0 0-9.002-13.35A41.861 41.861 0 0 0 59.348 4.3 41.736 41.736 0 0 0 43 1m0-1c23.748 0 43 19.252 43 43S66.748 86 43 86 0 66.748 0 43 19.252 0 43 0z" fill="#707070"/></g><path data-name="Path 68" d="M26.02 47.566l4.256 4.256 13.983-13.984 13.984 13.984 4.256-4.256-18.24-18.244z" fill="#fff"/></g></svg>