<?xml version="1.0" encoding="utf-8"?>
<!-- Generator: Adobe Illustrator 22.1.0, SVG Export Plug-In . SVG Version: 6.00 Build 0)  -->
<svg version="1.1" id="Layer_1" xmlns="http://www.w3.org/2000/svg" xmlns:xlink="http://www.w3.org/1999/xlink" x="0px" y="0px"
	 viewBox="0 0 48 48" style="enable-background:new 0 0 48 48;" xml:space="preserve">
<style type="text/css">
	.st0{fill:#C8312B;}
	.st1{fill:#FFFFFF;}
</style>
<circle class="st0" cx="24" cy="24" r="24"/>
<g>
	<path class="st1" d="M44.6,19c0,0-0.2-1.7-1-2.5c-0.9-1-2-1-2.5-1c-3.5-0.3-8.7-0.3-8.7-0.3h0c0,0-5.2,0-8.7,0.3
		c-0.5,0.1-1.5,0.1-2.5,1c-0.7,0.8-1,2.5-1,2.5s-0.2,2-0.2,4v1.9c0,2,0.2,4,0.2,4s0.2,1.7,1,2.5c0.9,1,2.2,1,2.7,1.1
		c2,0.2,8.5,0.2,8.5,0.2s5.2,0,8.7-0.3c0.5-0.1,1.5-0.1,2.5-1c0.7-0.8,1-2.5,1-2.5s0.2-2,0.2-4v-1.9C44.9,21.1,44.6,19,44.6,19"/>
	<g>
		<path class="st1" d="M18.7,29.4h-1.6v-0.9c-0.6,0.7-1.1,1-1.7,1c-0.5,0-0.8-0.2-1-0.6c-0.1-0.3-0.2-0.6-0.2-1.2V21h1.6v6.8
			c0,0.2,0.1,0.3,0.3,0.3c0.3,0,0.6-0.3,0.9-0.7V21h1.6V29.4L18.7,29.4z M11.5,26.9c0.1,0.8-0.2,1.2-0.7,1.2s-0.7-0.4-0.7-1.2v-3.3
			c-0.1-0.8,0.2-1.2,0.7-1.2c0.5,0,0.8,0.4,0.7,1.2L11.5,26.9L11.5,26.9z M13.1,23.7c0-0.9-0.2-1.6-0.5-2c-0.4-0.6-1.1-0.8-1.8-0.8
			c-0.8,0-1.3,0.2-1.7,0.8c-0.3,0.4-0.5,1.1-0.5,2l0,3c0,0.9,0.2,1.5,0.5,1.9c0.4,0.6,1.1,0.9,1.8,0.9c0.7,0,1.4-0.3,1.8-0.9
			c0.3-0.4,0.5-1,0.5-1.9L13.1,23.7L13.1,23.7z M6.9,24.8v4.6H5.2v-4.6c0,0-1.7-5.6-2.1-6.7h1.7L6,22.5l1.2-4.4H9
			C9,18.1,6.9,24.8,6.9,24.8z"/>
	</g>
	<g>
		<path class="st0" d="M39.8,23.3c0-0.8,0.2-1,0.7-1c0.5,0,0.7,0.2,0.7,1v0.9l-1.4,0V23.3z M42.8,25.5l0-1.7c0-0.9-0.2-1.5-0.5-2
			c-0.4-0.6-1-0.9-1.8-0.9c-0.8,0-1.4,0.3-1.8,0.9c-0.3,0.4-0.5,1.1-0.5,2v2.9c0,0.9,0.2,1.5,0.5,1.9c0.4,0.6,1,0.9,1.8,0.9
			c0.8,0,1.4-0.3,1.8-0.9c0.2-0.3,0.3-0.6,0.4-0.9c0-0.2,0.1-0.5,0.1-1v-0.2h-1.6c0,0.6,0,1,0,1c-0.1,0.4-0.3,0.6-0.7,0.6
			c-0.5,0-0.7-0.4-0.7-1.2v-1.5H42.8L42.8,25.5z M35.6,27c0,0.8-0.2,1.2-0.6,1.2c-0.2,0-0.5-0.1-0.8-0.4l0-5.1
			c0.3-0.2,0.5-0.4,0.8-0.4c0.4,0,0.6,0.2,0.6,1.1V27L35.6,27z M35.8,20.9c-0.6,0-1.1,0.3-1.6,0.9l0-3.6h-1.5v11.2h1.5l0-0.8
			c0.5,0.6,1.1,0.9,1.6,0.9c0.6,0,1-0.3,1.2-0.9c0.1-0.4,0.2-0.9,0.2-1.7v-3.3c0-0.8-0.1-1.3-0.2-1.7C36.8,21.3,36.4,20.9,35.8,20.9
			 M31.5,29.4h-1.6v-0.9c-0.6,0.7-1.1,1-1.7,1c-0.5,0-0.8-0.2-1-0.6c-0.1-0.3-0.2-0.6-0.2-1.2v-6.6h1.6v6.7c0,0.2,0.1,0.3,0.3,0.3
			c0.3,0,0.6-0.3,0.9-0.7v-6.3h1.6L31.5,29.4L31.5,29.4z"/>
		<path class="st0" d="M25.5,29.4h-1.7v-9.6H22v-1.6l5.2,0v1.6h-1.8V29.4z"/>
	</g>
</g>
</svg>
