<svg data-name="Group 1336" xmlns="http://www.w3.org/2000/svg" width="29.312" height="24.427"><path data-name="Path 76" d="M17.683 13.084a5.8 5.8 0 0 0-4.063-1.831 6.632 6.632 0 0 0 3.376-1.86 4.86 4.86 0 0 0 1.056-3.3 5.91 5.91 0 0 0-.705-2.909 5.247 5.247 0 0 0-2.063-2 8.774 8.774 0 0 0-2.816-.919A42.532 42.532 0 0 0 6.697.002h-6.7v24.427h6.9a44.781 44.781 0 0 0 5.994-.283 9.736 9.736 0 0 0 3.075-.958 5.637 5.637 0 0 0 2.355-2.3 6.987 6.987 0 0 0 .823-3.448 6.269 6.269 0 0 0-1.461-4.356zm-11.5-7.669h1.43a6.771 6.771 0 0 1 3.335.558 2.145 2.145 0 0 1 .853 1.935 2 2 0 0 1-.914 1.869 7.332 7.332 0 0 1-3.376.539H6.182zm5.671 14.008a6.8 6.8 0 0 1-3.344.6H6.183v-5.337H8.61a6.372 6.372 0 0 1 3.325.609 2.4 2.4 0 0 1 .9 2.152 2.13 2.13 0 0 1-.98 1.976z" fill="#fff"/><path data-name="Path 77" d="M26.219 18.239a3.094 3.094 0 1 0 3.094 3.094 3.093 3.093 0 0 0-3.094-3.094z" fill="#fff"/><path data-name="Rectangle 1810" fill="#fff" d="M23.531 0h5.374v16.285h-5.374z"/></svg>