<?xml version="1.0" encoding="utf-8"?>
<!-- Generator: Adobe Illustrator 22.0.1, SVG Export Plug-In . SVG Version: 6.00 Build 0)  -->
<svg version="1.1" id="Layer_1" xmlns="http://www.w3.org/2000/svg" xmlns:xlink="http://www.w3.org/1999/xlink" x="0px" y="0px"
	 viewBox="0 0 48 48" style="enable-background:new 0 0 48 48;" xml:space="preserve">
<style type="text/css">
	.st0{fill:#3ACE00;}
	.st1{fill:#FFFFFF;}
	.st2{fill:none;}
</style>
<circle class="st0" cx="24" cy="24" r="24"/>
<path class="st1" d="M22.2,9C14.1,9.9,5.1,16.5,8.5,25.5c3.2,8.5,13.2,8.9,14,9.5c1.4,1-1.3,5.1,1.9,3.9C30,36.8,40,28.8,40.2,22.2
	C40.5,13.8,31.1,8,22.2,9z M15.1,19.1v5.3h2.8c0.3,0,0.4,0,0.5,0.1s0.1,0.3,0.1,0.5c0,0.1,0,0.3-0.1,0.4s-0.3,0.1-0.5,0.1h-3.4
	c-0.3,0-0.5,0-0.6-0.1c-0.1-0.1-0.1-0.4-0.1-0.8v-5.6c0-0.3,0-0.5,0.1-0.6c0.1-0.1,0.3-0.3,0.5-0.3s0.4,0.1,0.5,0.3
	C15,18.6,15.1,18.9,15.1,19.1z M19.5,24.8v-5.7c0-0.3,0.1-0.5,0.3-0.6s0.3-0.3,0.5-0.3c0.1,0,0.3,0.1,0.5,0.3
	c0.1,0.1,0.1,0.4,0.1,0.6v5.7c0,0.4,0,0.5-0.1,0.8c-0.3,0.1-0.4,0.1-0.5,0.1c-0.3,0-0.4,0-0.5-0.1C19.7,25.4,19.5,25.2,19.5,24.8z
	 M24.4,19.1l2.7,4.3v-4.3c0-0.3,0-0.5,0.1-0.6c0.1-0.1,0.3-0.3,0.5-0.3c0.1,0,0.4,0.1,0.4,0.3c0.1,0.1,0.3,0.4,0.3,0.6v5.7
	c0,0.6-0.3,0.9-0.8,0.9c-0.1,0-0.3,0-0.4,0c0,0-0.1-0.1-0.3-0.3c-0.1,0-0.1-0.1-0.3-0.3c0-0.1-0.1-0.3-0.3-0.3l-2.5-4.3V25
	c0,0.3-0.1,0.5-0.3,0.6c-0.1,0.1-0.3,0.1-0.4,0.1c-0.3,0-0.4,0-0.5-0.1c-0.1-0.1-0.3-0.4-0.3-0.6v-5.6c0-0.3,0.1-0.5,0.1-0.6
	c0.1-0.1,0.1-0.3,0.3-0.4c0.1,0,0.4-0.1,0.5-0.1s0.3,0,0.3,0.1c0.1,0,0.3,0,0.3,0.1c0.1,0.1,0.1,0.1,0.3,0.3
	C24.1,18.9,24.2,19,24.4,19.1z M34.4,19.5h-3.2v1.8h2.9c0.1,0,0.4,0.1,0.4,0.1c0.1,0.1,0.3,0.3,0.3,0.4c0,0.3-0.1,0.4-0.3,0.5
	c0,0-0.3,0.1-0.4,0.1h-2.9v2h3.2c0.3,0,0.5,0.1,0.5,0.1c0.1,0.1,0.3,0.3,0.3,0.5c0,0.1-0.1,0.3-0.3,0.4c0,0.1-0.3,0.1-0.5,0.1h-3.7
	c-0.4,0-0.5,0-0.8-0.1c-0.1-0.1-0.1-0.4-0.1-0.8v-5.5c0-0.1,0-0.4,0.1-0.5c0-0.1,0.1-0.3,0.3-0.3c0.1-0.1,0.3-0.1,0.5-0.1h3.7
	c0.1,0,0.4,0.1,0.5,0.1c0,0.1,0.1,0.3,0.1,0.5c0,0.1-0.1,0.3-0.1,0.4C34.8,19.5,34.5,19.5,34.4,19.5z"/>
<line class="st2" x1="36.9" y1="14" x2="48" y2="29.9"/>
</svg>
