<?xml version="1.0" encoding="utf-8"?>
<!-- Generator: Adobe Illustrator 22.0.1, SVG Export Plug-In . SVG Version: 6.00 Build 0)  -->
<svg version="1.1" id="Layer_1" xmlns="http://www.w3.org/2000/svg" xmlns:xlink="http://www.w3.org/1999/xlink" x="0px" y="0px"
	 viewBox="0 0 48 48" style="enable-background:new 0 0 48 48;" xml:space="preserve">
<style type="text/css">
	.st0{fill:#00A4DE;}
	.st1{fill:none;}
	.st2{fill:#FFFFFF;}
</style>
<circle class="st0" cx="24" cy="24" r="24"/>
<line class="st1" x1="132.2" y1="13.1" x2="143.3" y2="29"/>
<g>
	<path class="st2" d="M26.9,24.8c-1-1.1-2.4-1.7-3.9-1.7c1.2-0.3,2.3-0.9,3.2-1.8c0.7-0.9,1.1-2,1-3.2c0-1-0.2-1.9-0.7-2.8
		c-0.5-0.8-1.1-1.5-2-1.9c-0.8-0.4-1.7-0.7-2.7-0.9c-1.8-0.2-3.7-0.3-5.5-0.3H10v23.3h6.6c1.9,0,3.8-0.1,5.7-0.3
		c1-0.1,2-0.4,2.9-0.9c1-0.5,1.7-1.3,2.2-2.2c0.5-1,0.8-2.1,0.8-3.3C28.4,27.5,27.9,26,26.9,24.8z M15.9,17.5h1.4
		c1.1-0.1,2.2,0.1,3.2,0.5c0.6,0.4,0.9,1.1,0.8,1.8c0.1,0.7-0.3,1.4-0.9,1.8c-1,0.4-2.1,0.6-3.2,0.5h-1.3L15.9,17.5z M21.3,30.9
		c-1,0.5-2.1,0.7-3.2,0.6h-2.2v-5.1h2.3c1.1-0.1,2.2,0.1,3.2,0.6c0.6,0.5,0.9,1.3,0.9,2.1C22.3,29.8,22,30.5,21.3,30.9L21.3,30.9z"
		/>
	<path class="st2" d="M35,29.8c-1.6,0-3,1.3-3,3c0,1.6,1.3,3,3,3s3-1.3,3-3l0,0C38,31.1,36.7,29.8,35,29.8C35,29.8,35,29.8,35,29.8z
		"/>
	<path class="st2" d="M32.5,12.3h5.1v15.6h-5.1V12.3z"/>
</g>
</svg>
