<svg xmlns="http://www.w3.org/2000/svg" width="73.359" height="22.688" viewBox="0 0 73.359 22.688">
  <path id="Path_274" data-name="Path 274" d="M21,0H17.781L6.25-17.859a7.463,7.463,0,0,1-.719-1.406H5.438a23.068,23.068,0,0,1,.125,3.078V0H2.938V-22.406H6.344L17.563-4.828q.7,1.094.906,1.5h.063a23.706,23.706,0,0,1-.156-3.3V-22.406H21ZM38.75,0H26.875V-22.406H38.25v2.375H29.5v7.453h8.094v2.359H29.5v7.844h9.25ZM69.625-22.406,63.3,0H60.219L55.609-16.375a10.251,10.251,0,0,1-.359-2.281h-.062a11.574,11.574,0,0,1-.406,2.25L50.141,0H47.094L40.531-22.406h2.891L48.188-5.219a11.28,11.28,0,0,1,.375,2.25h.078a13.282,13.282,0,0,1,.484-2.25l4.953-17.187h2.516l4.75,17.313A12.664,12.664,0,0,1,61.719-3h.063A12.552,12.552,0,0,1,62.2-5.156l4.578-17.25Zm6.25,0-.3,16.094H73.469l-.281-16.094ZM74.563.281a1.684,1.684,0,0,1-1.227-.5,1.646,1.646,0,0,1-.508-1.219,1.671,1.671,0,0,1,.508-1.227,1.671,1.671,0,0,1,1.227-.508,1.679,1.679,0,0,1,1.219.508A1.659,1.659,0,0,1,76.3-1.437a1.633,1.633,0,0,1-.516,1.219A1.692,1.692,0,0,1,74.563.281Z" transform="translate(-2.938 22.406)" fill="#a53333"/>
</svg>
