<?xml version="1.0" encoding="utf-8"?>
<!-- Generator: Adobe Illustrator 22.1.0, SVG Export Plug-In . SVG Version: 6.00 Build 0)  -->
<svg version="1.1" id="Layer_1" xmlns="http://www.w3.org/2000/svg" xmlns:xlink="http://www.w3.org/1999/xlink" x="0px" y="0px"
	 viewBox="0 0 1413.6 1319.4" style="enable-background:new 0 0 1413.6 1319.4;" xml:space="preserve">
<style type="text/css">
	.st0{fill:#DDE8CE;stroke:#FFFFFF;stroke-width:3;stroke-miterlimit:10;}
</style>
<g>
	<path class="st0" d="M1400.9,1.5h-366.8c-6.1,0-11.1,5-11.1,11.1v198v31.1v35.4c0,6.1,5,11.1,11.1,11.1h75.7
		c6.1,0,11.1-5,11.1-11.1v-24.3H1401c6.1,0,11.1-5,11.1-11.1V12.6C1412,6.5,1407,1.5,1400.9,1.5"/>
</g>
<g>
	<path class="st0" d="M27.2,1317.9L27.2,1317.9c-14.1,0-25.7-11.6-25.7-25.7v-69c0-14.1,11.6-25.7,25.7-25.7s25.7,11.6,25.7,25.7v69
		C52.9,1306.4,41.3,1317.9,27.2,1317.9"/>
</g>
<g>
	<path class="st0" d="M486.1,1247.3H613c7.4,0,13.4-6,13.4-13.4v-59.7H486.1V1247.3z"/>
</g>
<g>
	<path class="st0" d="M345.8,1174.2v59.7c0,7.4,6,13.4,13.4,13.4h126.9v-73.1H345.8z"/>
</g>
<g>
	<path class="st0" d="M359.2,1101.1c-7.4,0-13.4,6-13.4,13.4v59.7h140.3v-73.1H359.2z"/>
</g>
<g>
	<path class="st0" d="M613,1101.1H486.1v73.1h140.3v-59.7C626.4,1107.1,620.4,1101.1,613,1101.1"/>
</g>
<g>
	<path class="st0" d="M205.5,913.3v47.5v81.1h89.9V913.3H205.5z"/>
</g>
<g>
	<path class="st0" d="M295.4,913.3v-83.5c0-7.4-6-13.4-13.4-13.4h-76.4v96.9H295.4z"/>
</g>
<g>
	<path class="st0" d="M205.5,1041.9h89.9v129.3h-89.9V1041.9z"/>
</g>
<g>
	<path class="st0" d="M145.2,960.8v210.4h60.3v-129.3v-81.1H145.2z"/>
</g>
<g>
	<path class="st0" d="M205.5,960.8h-60.3H205.5v-47.5v-96.9h-27.1c-0.4,0-0.8-0.1-1.2-0.1H118v144.4h24.8h2.4L205.5,960.8
		L205.5,960.8z"/>
</g>
<g>
	<path class="st0" d="M205.5,1171.2h-60.3v62.6c0,7.4,6,13.4,13.4,13.4H282c7.4,0,13.4-6,13.4-13.4v-62.6H205.5z"/>
</g>
<g>
	<path class="st0" d="M69.4,816.3c-7.4,0-13.4,6-13.4,13.4v117.6c0,7.4,6,13.4,13.4,13.4H118V816.3H69.4z"/>
</g>
<g>
	<path class="st0" d="M774.5,857.3h80.6v104.6h-80.6V857.3z"/>
</g>
<g>
	<path class="st0" d="M708.6,1101.1v61.7h65.9V961.9h-65.9V1101.1z"/>
</g>
<g>
	<path class="st0" d="M1064.1,929.9h-22.3v137.5h86.7v-62.3v-75.2H1064.1z"/>
</g>
<g>
	<path class="st0" d="M1064.1,929.9V776.7h-56h-57.2v290.7h90.9V929.9H1064.1z"/>
</g>
<g>
	<path class="st0" d="M1199.6,561.5h173.5v96.4h-173.5V561.5z"/>
</g>
<g>
	<path class="st0" d="M1199.6,465.1h173.5v96.4h-173.5V465.1z"/>
</g>
<g>
	<path class="st0" d="M1128.5,929.9v75.2h143.3v-37.4v-37.8H1160H1128.5z"/>
</g>
<g>
	<path class="st0" d="M1199.6,657.9v-96.4h-173.4v96.4H1160H1199.6z"/>
</g>
<g>
	<path class="st0" d="M1026.2,465.1h173.5v96.4h-173.5V465.1z"/>
</g>
<g>
	<path class="st0" d="M1373.1,465.1v-96.5c0-7.4-6-13.4-13.4-13.4h-320.1c-7.4,0-13.4,6-13.4,13.4v96.5h173.5H1373.1z"/>
</g>
<g>
	<path class="st0" d="M1064.1,776.7h95.9V657.9h-133.8v50.2h-18.1v68.6H1064.1z"/>
</g>
<g>
	<path class="st0" d="M1160,776.7h111.8v153.2H1160V776.7z"/>
</g>
<g>
	<path class="st0" d="M855.1,961.9h-80.6v201v82.4h67.2c7.4,0,13.4-6,13.4-13.4V1061v-76.3L855.1,961.9L855.1,961.9z"/>
</g>
<g>
	<path class="st0" d="M1128.5,1067.4h-86.7h-90.9v106.4l177.6-0.6v-0.3V1067.4z"/>
</g>
<g>
	<path class="st0" d="M1128.5,1067.4v105.5v0.4l109.2-0.4c7.9,0,14.3-9,14.3-20v-85.4L1128.5,1067.4L1128.5,1067.4z"/>
</g>
<g>
	<path class="st0" d="M708.6,1162.8v-61.7h-41.5v130.7c0,7.4,6,13.4,13.4,13.4h94v-82.4H708.6z"/>
</g>
<g>
	<path class="st0" d="M1199.6,657.9H1160v118.8h111.8h101.3V657.9H1199.6z"/>
</g>
<g>
	<path class="st0" d="M1128.5,1005.1v62.2H1252v-30.6c0-10.3,6-18.8,13.4-18.8h6.4V1005L1128.5,1005.1L1128.5,1005.1z"/>
</g>
<g>
	<path class="st0" d="M1271.8,967.7v37.4v12.9h19.5c7.4,0,13.4,8.5,13.4,18.8v116c0,11.1,6.4,20,14.3,20h40.6
		c7.4,0,13.4-8.5,13.4-18.8V967.7H1271.8z"/>
</g>
<g>
	<path class="st0" d="M708.6,961.9h-41.5v99v40.2h41.5V961.9z"/>
</g>
<g>
	<path class="st0" d="M1271.8,929.9v37.8h101.3v-18.8V781.4v-4.7h-101.3V929.9z"/>
</g>
<g>
	<path class="st0" d="M855.1,1067.4v106.8l95.8-0.4v-106.4H855.1z"/>
</g>
<g>
	<path class="st0" d="M855.1,766.6v10.1h1h94.8h57.2v-68.6h-153V766.6z"/>
</g>
<g>
	<path class="st0" d="M855.1,776.7v112.7v146.3v31.7h95.8V776.7h-94.8H855.1z"/>
</g>
<g>
	<path class="st0" d="M417.3,816.3h80.3v122.3h-80.3V816.3z"/>
</g>
<g>
	<path class="st0" d="M497.6,816.3h80.3v122.3h-80.3L497.6,816.3z"/>
</g>
<g>
	<path class="st0" d="M1064.1,929.9h64.4h31.5V776.7h-95.9V929.9z"/>
</g>
<g>
	<path class="st0" d="M417.3,816.3h-58.1c-7.4,0-13.4,6-13.4,13.4v217.7c0,7.4,6,13.4,13.4,13.4h58.1V938.6V816.3z"/>
</g>
<g>
	<path class="st0" d="M577.9,816.3v122.3v122.3h89.2v-99h-0.9h0.9V816.3H577.9z"/>
</g>
<g>
	<path class="st0" d="M741.5,816.3h-74.4v145.6h41.5h65.9V857.3h-33V816.3z"/>
</g>
<g>
	<path class="st0" d="M774.5,780v2.5v14.3c0,10.8-8.7,19.5-19.5,19.5h-13.5v40.9h33h80.6v-90.7h-80.6V780z"/>
</g>
<g>
	<path class="st0" d="M841.7,591.5h-53.8c-7.4,0-13.4,6-13.4,13.4v116.5v41.8v3.3h80.6v-58.6V605
		C855.1,597.6,849.1,591.5,841.7,591.5"/>
</g>
<g>
	<path class="st0" d="M497.6,938.6h80.3v122.3h-80.3L497.6,938.6z"/>
</g>
<g>
	<path class="st0" d="M417.6,938.6h80.3v122.3h-80.3L417.6,938.6z"/>
</g>
</svg>
